<?xml version="1.0" encoding="utf-8"?>
<!-- Generator: Adobe Illustrator 16.0.0, SVG Export Plug-In . SVG Version: 6.00 Build 0)  -->
<!DOCTYPE svg PUBLIC "-//W3C//DTD SVG 1.1//EN" "http://www.w3.org/Graphics/SVG/1.1/DTD/svg11.dtd">
<svg version="1.1" id="Capa_1" xmlns="http://www.w3.org/2000/svg" xmlns:xlink="http://www.w3.org/1999/xlink" x="0px" y="0px"
	 width="192px" height="117.5px" viewBox="0 0 192 117.5" enable-background="new 0 0 192 117.5" xml:space="preserve">
<g>
	<g>
		<path fill-rule="evenodd" clip-rule="evenodd" fill="#5FA098" d="M90.237,53.164c-2.391-2.082-3.422-4.87-4.51-7.595
			C81.407,34.742,74.52,26.209,63.919,20.952c-4.706-2.33-9.655-3.562-14.935-3.078c-2.319,0.216-4.585,0.06-6.755-0.805
			c-1.88-0.757-3.68-1.846-3.572-4.117c0.106-2.194,2.133-2.952,3.878-3.358c5.975-1.386,11.981-0.877,17.547,1.434
			c17.22,7.138,27.407,20.087,30.702,38.437C91.061,50.991,91.017,50.997,90.237,53.164z"/>
		<path fill-rule="evenodd" clip-rule="evenodd" fill="#DA9500" d="M69.103,94.66c-0.273,2.744-2.473,3.773-4.338,4.907
			c-9.533,5.786-19.931,7.088-30.791,5.557c-9.689-1.36-18.239-5.171-25.091-12.334c-1.911-1.999-3.618-4.164-4.417-6.887
			c-0.359-1.252-0.504-2.561,0.465-3.576c1.009-1.06,2.284-0.748,3.543-0.394c2.55,0.72,4.463,2.398,6.088,4.309
			c12.362,14.563,33.477,17.708,49.515,9.762C65.593,95.254,67.143,94.445,69.103,94.66z"/>
		<path fill-rule="evenodd" clip-rule="evenodd" fill="#A54144" d="M1.802,55.199c0.547-1.438,1.187-2.725,2.761-2.895
			c1.368-0.147,2.371,0.695,3.134,1.777c1.153,1.638,1.775,3.51,1.882,5.466c0.799,14.516,9.823,23.054,21.475,29.687
			c3.421,1.951,7.229,2.853,10.994,3.869c1.2,0.323,2.366,0.85,3.472,1.432c0.429,0.227,0.902,0.859,0.902,1.305
			c0.002,0.855-0.831,0.942-1.516,1.009c-2.558,0.242-5.068-0.288-7.449-1.015C24.444,91.856,13.696,84.666,6.264,73.055
			c-3.152-4.929-4.936-10.323-4.655-16.264C1.635,56.22,1.744,55.655,1.802,55.199z"/>
		<path fill-rule="evenodd" clip-rule="evenodd" fill="#4A72B0" d="M57.751,21.804c6.132,2.095,11.842,4.907,16.265,9.806
			c0.781,0.864,2.216,2.032,0.981,3.171c-0.996,0.92-2.114-0.448-2.871-1.188C59.982,21.686,43.43,23.271,31.499,31.489
			c-1.686,1.158-3.557,2.091-5.44,2.907c-1.495,0.648-3.258,0.948-4.47-0.472c-1.295-1.523-0.746-3.236,0.211-4.786
			c1.884-3.054,4.674-4.982,7.95-6.263C38.956,19.278,48.316,19.588,57.751,21.804z"/>
		<path fill-rule="evenodd" clip-rule="evenodd" fill="#BE3176" d="M33.208,84.953c-1.776,0.443-2.915-0.262-4.072-0.98
			c-8.701-5.419-14.284-13.071-16.526-23.097c-1.393-6.215-2.115-12.433,0.044-18.636c0.259-0.751,0.446-1.603,0.93-2.195
			c1.314-1.618,2.859-3.417,5.171-2.309c2.071,0.993,2.021,3.175,1.592,5.158c-0.852,3.906-2.403,7.611-2.734,11.688
			c-0.835,10.336,3,18.563,10.76,25.134C30.17,81.237,32.101,82.572,33.208,84.953z"/>
		<path fill-rule="evenodd" clip-rule="evenodd" fill="#7B057E" d="M9.141,29.458c0.987-3.253,2.945-5.604,5.444-7.508
			c5.539-4.22,11.624-7.269,18.641-8.063c0.974-0.111,2.551-0.749,2.791,1.007c0.187,1.359-1.208,1.444-2.112,1.82
			c-5.996,2.468-11.413,5.699-15.451,10.971c-1.305,1.705-2.979,3.165-4.633,4.561c-1.193,1.013-2.603,2.211-4.304,1.104
			C7.773,32.226,9.058,30.676,9.141,29.458z"/>
		<path fill-rule="evenodd" clip-rule="evenodd" fill="#F7EB45" d="M28.721,114.379c-2.837-0.676-5.084-2.011-6.708-4.182
			c-1.408-1.883-0.662-3.392,1.701-3.307c1.559,0.052,3.254,0.394,4.617,1.114c5.61,2.947,11.508,3.422,17.632,2.54
			c0.222-0.031,0.484-0.164,0.672-0.093c0.853,0.326,2.284-0.806,2.56,0.718c0.193,1.05-1.031,1.412-1.848,1.732
			c-4.31,1.696-8.803,2.497-13.415,2.199C32.14,114.989,30.252,115.146,28.721,114.379z"/>
		<path fill-rule="evenodd" clip-rule="evenodd" fill="#A1BC31" d="M85.838,23.94c-2.07-1.129-2.692-2.959-3.736-4.411
			c-3.788-5.248-8.852-8.786-14.638-11.499c-1.845-0.861-4.883-1.825-3.923-4.276c1.021-2.61,3.812-0.916,5.76-0.366
			C76.866,5.526,84.996,15.541,85.838,23.94z"/>
	</g>
	<g>
		<path fill="#F7F7F8" stroke="#F7F7F8" stroke-width="0.5" stroke-miterlimit="10" d="M49.964,61.301
			c-1.872-1.936-4.463-3.121-7.18-3.121c-5.245,0-9.493,4.558-9.493,9.742c0,5.183,4.275,9.74,9.554,9.74
			c2.656,0,5.247-1.249,7.119-3.122v3.247c-2.027,1.468-4.528,2.309-7.023,2.309c-6.65,0-12.273-5.4-12.273-12.08
			c0-6.745,5.527-12.272,12.273-12.272c2.621,0,4.931,0.75,7.023,2.312V61.301z"/>
		<path fill="#F7F7F8" stroke="#F7F7F8" stroke-width="0.5" stroke-miterlimit="10" d="M77.752,67.953
			c0,6.776-5.556,12.142-12.267,12.142c-6.716,0-12.273-5.366-12.273-12.142c0-6.745,5.557-12.21,12.273-12.21
			C72.197,55.743,77.752,61.208,77.752,67.953z M55.836,67.921c0,5.306,4.309,9.74,9.65,9.74c5.339,0,9.646-4.435,9.646-9.74
			c0-5.343-4.243-9.742-9.646-9.742C60.082,58.18,55.836,62.579,55.836,67.921z"/>
		<path fill="#F7F7F8" stroke="#F7F7F8" stroke-width="0.5" stroke-miterlimit="10" d="M81.473,55.149l18.36,19.232V56.148h2.623
			v24.604L84.094,61.552V79.69h-2.621V55.149z"/>
		<path fill="#F7F7F8" stroke="#F7F7F8" stroke-width="0.5" stroke-miterlimit="10" d="M125.313,61.301
			c-1.872-1.936-4.465-3.121-7.182-3.121c-5.246,0-9.491,4.558-9.491,9.742c0,5.183,4.278,9.74,9.555,9.74
			c2.653,0,5.246-1.249,7.118-3.122v3.247c-2.029,1.468-4.529,2.309-7.025,2.309c-6.653,0-12.271-5.4-12.271-12.08
			c0-6.745,5.526-12.272,12.271-12.272c2.623,0,4.933,0.75,7.025,2.312V61.301z"/>
		<path fill="#F7F7F8" stroke="#F7F7F8" stroke-width="0.5" stroke-miterlimit="10" d="M129.75,56.148h12.207v2.437h-9.583v6.994
			h9.304v2.436h-9.304v9.24h9.583v2.436H129.75V56.148z"/>
		<path fill="#F7F7F8" stroke="#F7F7F8" stroke-width="0.5" stroke-miterlimit="10" d="M149.046,79.69h-2.621V56.148h3.872
			c2.028,0,4.119,0.064,5.838,1.25c1.748,1.218,2.654,3.278,2.654,5.371c0,1.903-0.782,3.839-2.25,5.058
			c-1.592,1.313-3.621,1.562-5.588,1.562h-1.906V79.69z M149.046,66.952h1.748c2.903,0,5.372-0.873,5.372-4.244
			c0-3.843-3.09-4.123-6.15-4.123h-0.969V66.952z"/>
		<path fill="#F7F7F8" stroke="#F7F7F8" stroke-width="0.5" stroke-miterlimit="10" d="M168.375,79.69h-2.624V58.585h-5.681v-2.437
			h14.051v2.437h-5.746V79.69z"/>
		<path fill="#F7F7F8" stroke="#F7F7F8" stroke-width="0.5" stroke-miterlimit="10" d="M187.485,60.739
			c-0.938-1.622-2.061-2.559-4.058-2.559c-2.095,0-3.905,1.498-3.905,3.65c0,2.031,2.092,2.967,3.682,3.686l1.565,0.688
			c3.059,1.342,5.65,2.871,5.65,6.618c0,4.12-3.31,7.273-7.398,7.273c-3.779,0-6.59-2.433-7.339-6.086l2.56-0.719
			c0.343,2.405,2.186,4.373,4.713,4.373c2.53,0,4.84-1.936,4.84-4.589c0-2.748-2.153-3.685-4.34-4.682l-1.436-0.627
			c-2.747-1.248-5.123-2.653-5.123-6.024c0-3.651,3.096-5.996,6.589-5.996c2.625,0,4.84,1.344,6.09,3.655L187.485,60.739z"/>
	</g>
</g>
</svg>
